<?xml version="1.0" encoding="utf-8"?>
<!-- Generator: Adobe Illustrator 16.0.0, SVG Export Plug-In . SVG Version: 6.00 Build 0)  -->
<!DOCTYPE svg PUBLIC "-//W3C//DTD SVG 1.1//EN" "http://www.w3.org/Graphics/SVG/1.1/DTD/svg11.dtd">
<svg version="1.1" id="Capa_1" xmlns="http://www.w3.org/2000/svg" xmlns:xlink="http://www.w3.org/1999/xlink" x="0px" y="0px"
	 width="3272px" height="781.521px" viewBox="0 0 3272 781.521" enable-background="new 0 0 3272 781.521" xml:space="preserve">
<g>
	<g>
		<path fill-rule="evenodd" clip-rule="evenodd" fill="#FFFFFF" d="M631.003,584.805c10.291,0,18.356-8.065,18.356-18.356
			c0-10.29-8.066-18.356-18.356-18.356c-10.29,0-18.356,8.066-18.356,18.356C612.647,576.74,620.713,584.805,631.003,584.805
			L631.003,584.805z M631.003,553.274c7.446,0,13.176,5.729,13.176,13.175s-5.729,13.176-13.176,13.176s-13.175-5.729-13.175-13.176
			S623.557,553.274,631.003,553.274z"/>
	</g>
	<g>
		<path fill-rule="evenodd" clip-rule="evenodd" fill="#FFFFFF" d="M498.114,577.363c-0.717-0.421-1.645-0.399-2.34,0.064
			l-0.027,0.018l-0.027,0.017c-4.37,2.621-8.845,2.621-13.214,0l-0.027-0.017l-0.027-0.018c-0.729-0.486-1.713-0.486-2.442,0
			c-0.864,0.576-1.37,1.363-1.37,2.423v18.131c0,1.618,0.973,2.59,2.591,2.59h15.765c1.618,0,2.591-0.973,2.591-2.59V579.85
			C499.585,578.99,498.716,577.978,498.114,577.363L498.114,577.363z M483.819,595.39v-11.186l1.542,0.22
			c2.578,0.368,4.922,0.368,7.501,0l1.542-0.22v11.186H483.819z"/>
	</g>
	<g>
		<path fill-rule="evenodd" clip-rule="evenodd" fill="#FFFFFF" d="M674.359,710.931c1.618,0,2.59-0.973,2.59-2.59v-22.466
			c0-1.161-0.615-1.838-1.618-2.34c-1.025-0.512-1.985-0.254-2.775,0.536l-22.467,22.466c-0.791,0.791-1.047,1.751-0.535,2.776
			l0.066,0.132l0.036,0.145c0.242,0.967,1.341,1.341,2.237,1.341H674.359L674.359,710.931z M658.09,705.75l13.678-13.678v13.678
			H658.09z"/>
	</g>
	<g>
		<path fill-rule="evenodd" clip-rule="evenodd" fill="#FFFFFF" d="M651.893,710.931c0.793,0,1.25-0.231,1.804-0.786l22.466-22.466
			c0.555-0.554,0.787-1.01,0.787-1.803v-24.832c0-1.617-0.973-2.59-2.59-2.59h-30.743c-0.794,0-1.25,0.232-1.804,0.787
			l-47.297,47.297c-0.791,0.791-1.048,1.751-0.535,2.776l0.066,0.132l0.036,0.145c0.242,0.967,1.342,1.341,2.237,1.341H651.893
			L651.893,710.931z M602.516,705.75l42.117-42.116h27.136v21.224l-20.893,20.893H602.516z"/>
	</g>
	<g>
		<path fill-rule="evenodd" clip-rule="evenodd" fill="#FFFFFF" d="M596.319,710.931c0.265,0,1.016-0.178,1.156-0.436l0.098-0.195
			l47.452-47.453c0.791-0.791,1.048-1.751,0.536-2.776l-0.066-0.132l-0.036-0.144c-0.242-0.968-1.341-1.341-2.236-1.341h-55.574
			c-0.794,0-1.249,0.232-1.804,0.787l-47.296,47.297c-0.824,0.823-0.693,2.016-0.433,3.053c0.242,0.967,1.341,1.341,2.236,1.341
			H596.319L596.319,710.931z M546.548,705.75l42.117-42.116h48.359l-42.116,42.116H546.548z"/>
	</g>
	<g>
		<path fill-rule="evenodd" clip-rule="evenodd" fill="#FFFFFF" d="M540.351,710.931c0.793,0,1.249-0.232,1.803-0.786l47.297-47.297
			c0.791-0.791,1.047-1.751,0.535-2.776l-0.066-0.132l-0.036-0.144c-0.242-0.968-1.341-1.341-2.236-1.341h-55.574
			c-0.793,0-1.25,0.232-1.804,0.787l-47.297,47.297c-0.823,0.823-0.692,2.015-0.433,3.053c0.242,0.967,1.342,1.341,2.237,1.341
			H540.351L540.351,710.931z M490.974,705.75l42.116-42.116h48.359l-42.116,42.116H490.974z"/>
	</g>
	<g>
		<path fill-rule="evenodd" clip-rule="evenodd" fill="#FFFFFF" d="M484.776,710.931c0.265,0,1.017-0.178,1.157-0.436l0.098-0.195
			l47.452-47.453c0.791-0.791,1.047-1.751,0.536-2.776l-0.066-0.132l-0.036-0.144c-0.242-0.968-1.341-1.341-2.237-1.341h-55.574
			c-0.594,0-1.388,0.371-1.804,0.787l-30.349,30.349c-0.555,0.555-0.787,1.01-0.787,1.804v16.948c0,1.617,0.973,2.59,2.59,2.59
			H484.776L484.776,710.931z M448.347,705.75v-13.34l28.776-28.776h48.359l-42.116,42.116H448.347z"/>
	</g>
	<g>
		<path fill-rule="evenodd" clip-rule="evenodd" fill="#FFFFFF" d="M445.08,693.929c0.167,0.055,0.523,0.054,0.676,0.054
			c0.793,0,1.25-0.232,1.804-0.787l30.349-30.349c0.79-0.791,1.047-1.751,0.535-2.776l-0.066-0.132l-0.036-0.144
			c-0.242-0.968-1.342-1.341-2.236-1.341h-30.349c-1.618,0-2.59,0.973-2.59,2.59v30.349c0,0.811,0.661,2.005,1.441,2.265
			l0.303,0.101L445.08,693.929L445.08,693.929z M448.347,663.634h21.561l-21.561,21.561V663.634z"/>
	</g>
	<g>
		<path fill-rule="evenodd" clip-rule="evenodd" fill="#FFFFFF" d="M674.359,710.931c1.618,0,2.59-0.973,2.59-2.59v-47.297
			c0-1.617-0.973-2.59-2.59-2.59H445.756c-1.618,0-2.59,0.973-2.59,2.59v47.297c0,1.617,0.973,2.59,2.59,2.59H674.359
			L674.359,710.931z M448.347,705.75v-42.116h223.422v42.116H448.347z"/>
	</g>
	<g>
		<path fill-rule="evenodd" clip-rule="evenodd" fill="#FFFFFF" d="M649.656,646.526c0.242,0.968,1.341,1.342,2.237,1.342h22.466
			c1.618,0,2.59-0.973,2.59-2.59v-22.466c0-1.161-0.615-1.837-1.618-2.339c-1.025-0.512-1.985-0.255-2.775,0.536l-22.467,22.466
			c-0.79,0.791-1.047,1.751-0.535,2.775l0.066,0.133L649.656,646.526L649.656,646.526z M658.09,642.688l13.678-13.678v13.678H658.09
			z"/>
	</g>
	<g>
		<path fill-rule="evenodd" clip-rule="evenodd" fill="#FFFFFF" d="M651.893,647.868c0.793,0,1.25-0.232,1.804-0.787l22.466-22.466
			c0.555-0.554,0.787-1.01,0.787-1.804v-24.831c0-1.618-0.973-2.591-2.59-2.591h-30.743c-0.794,0-1.249,0.232-1.804,0.787
			l-47.297,47.298c-0.791,0.79-1.048,1.75-0.535,2.775l0.066,0.133l0.036,0.144c0.242,0.968,1.341,1.341,2.237,1.341H651.893
			L651.893,647.868z M602.516,642.688l42.117-42.117h27.136v21.224l-20.893,20.893H602.516z"/>
	</g>
	<g>
		<path fill-rule="evenodd" clip-rule="evenodd" fill="#FFFFFF" d="M596.319,647.868c0.264,0,1.016-0.178,1.156-0.436l0.098-0.196
			l47.452-47.452c0.791-0.79,1.048-1.751,0.536-2.776l-0.066-0.133l-0.036-0.144c-0.242-0.967-1.341-1.341-2.236-1.341h-55.574
			c-0.794,0-1.249,0.232-1.804,0.787l-47.296,47.298c-0.791,0.79-1.048,1.75-0.536,2.775l0.066,0.133l0.036,0.144
			c0.242,0.968,1.341,1.341,2.236,1.341H596.319L596.319,647.868z M546.548,642.688l42.117-42.117h48.359l-42.116,42.117H546.548z"
			/>
	</g>
	<g>
		<path fill-rule="evenodd" clip-rule="evenodd" fill="#FFFFFF" d="M540.351,647.868c0.793,0,1.249-0.232,1.803-0.787l47.297-47.297
			c0.791-0.791,1.047-1.751,0.535-2.776l-0.066-0.133l-0.036-0.144c-0.242-0.967-1.341-1.341-2.236-1.341h-55.574
			c-0.793,0-1.25,0.232-1.804,0.787l-47.297,47.298c-0.79,0.79-1.047,1.75-0.535,2.775l0.066,0.133l0.036,0.144
			c0.242,0.968,1.341,1.342,2.236,1.342H540.351L540.351,647.868z M490.974,642.688l42.116-42.117h48.359l-42.116,42.117H490.974z"
			/>
	</g>
	<g>
		<path fill-rule="evenodd" clip-rule="evenodd" fill="#FFFFFF" d="M484.776,647.868c0.265,0,1.017-0.178,1.157-0.436l0.098-0.196
			l47.452-47.452c0.791-0.791,1.047-1.751,0.536-2.776l-0.066-0.132l-0.036-0.144c-0.242-0.968-1.341-1.342-2.237-1.342h-55.574
			c-0.594,0-1.388,0.372-1.804,0.787l-30.349,30.349c-0.554,0.555-0.787,1.01-0.787,1.804v16.948c0,1.618,0.973,2.59,2.59,2.59
			H484.776L484.776,647.868z M448.347,642.688v-13.341l28.776-28.775h48.359l-42.116,42.117H448.347z"/>
	</g>
	<g>
		<path fill-rule="evenodd" clip-rule="evenodd" fill="#FFFFFF" d="M445.08,630.866c0.167,0.055,0.523,0.054,0.676,0.054
			c0.793,0,1.25-0.232,1.804-0.787l30.349-30.349c0.79-0.79,1.047-1.751,0.535-2.776l-0.066-0.133l-0.036-0.144
			c-0.242-0.967-1.341-1.341-2.236-1.341h-30.349c-1.618,0-2.59,0.973-2.59,2.591v30.349c0,0.811,0.661,2.006,1.441,2.265
			l0.303,0.102L445.08,630.866L445.08,630.866z M448.347,600.571h21.561l-21.561,21.561V600.571z"/>
	</g>
	<g>
		<path fill-rule="evenodd" clip-rule="evenodd" fill="#FFFFFF" d="M623.12,762.169c1.618,0,2.591-0.972,2.591-2.59v-23.648
			c0-1.618-0.973-2.591-2.591-2.591H496.995c-1.618,0-2.59,0.973-2.59,2.591v23.648c0,1.617,0.972,2.59,2.59,2.59H623.12
			L623.12,762.169z M499.585,756.988v-18.468H620.53v18.468H499.585z"/>
	</g>
	<g>
		<path fill-rule="evenodd" clip-rule="evenodd" fill="#FFFFFF" d="M640.005,577.363c-0.716-0.421-1.645-0.4-2.34,0.064
			l-0.027,0.018l-0.027,0.017c-4.37,2.621-8.845,2.621-13.214,0l-0.028-0.017l-0.027-0.018c-0.729-0.486-1.713-0.486-2.442,0
			c-0.864,0.576-1.369,1.363-1.369,2.423v18.131c0,1.618,0.972,2.59,2.59,2.59h15.766c1.618,0,2.59-0.973,2.59-2.59V579.85
			C641.477,578.99,640.606,577.978,640.005,577.363L640.005,577.363z M625.711,595.39v-11.186l1.542,0.22
			c2.578,0.368,4.922,0.368,7.5,0l1.542-0.22v11.186H625.711z"/>
	</g>
	<g>
		<path fill-rule="evenodd" clip-rule="evenodd" fill="#FFFFFF" d="M638.886,663.634c1.618,0,2.59-0.973,2.59-2.59v-15.766
			c0-1.618-0.973-2.59-2.59-2.59H623.12c-1.618,0-2.59,0.972-2.59,2.59v15.766c0,1.618,0.972,2.59,2.59,2.59H638.886
			L638.886,663.634z M625.711,658.453v-10.585h10.585v10.585H625.711z"/>
	</g>
	<g>
		<path fill-rule="evenodd" clip-rule="evenodd" fill="#FFFFFF" d="M638.886,781.877c1.618,0,2.59-0.974,2.59-2.591v-70.945
			c0-1.618-0.973-2.591-2.59-2.591H623.12c-1.618,0-2.59,0.973-2.59,2.591v70.945c0,1.617,0.972,2.591,2.59,2.591H638.886
			L638.886,781.877z M625.711,776.696v-65.766h10.585v65.766H625.711z"/>
	</g>
	<g>
		<path fill-rule="evenodd" clip-rule="evenodd" fill="#FFFFFF" d="M496.995,663.634c1.618,0,2.591-0.973,2.591-2.59v-15.766
			c0-1.618-0.973-2.59-2.591-2.59h-15.765c-1.618,0-2.591,0.972-2.591,2.59v15.766c0,1.618,0.973,2.59,2.591,2.59H496.995
			L496.995,663.634z M483.819,658.453v-10.585h10.585v10.585H483.819z"/>
	</g>
	<g>
		<path fill-rule="evenodd" clip-rule="evenodd" fill="#FFFFFF" d="M496.995,781.877c1.618,0,2.591-0.974,2.591-2.591v-70.945
			c0-1.618-0.973-2.591-2.591-2.591h-15.765c-1.618,0-2.591,0.973-2.591,2.591v70.945c0,1.617,0.973,2.591,2.591,2.591H496.995
			L496.995,781.877z M483.819,776.696v-65.766h10.585v65.766H483.819z"/>
	</g>
	<g>
		<path fill-rule="evenodd" clip-rule="evenodd" fill="#FFFFFF" d="M489.112,584.805c10.291,0,18.356-8.065,18.356-18.356
			c0-10.29-8.066-18.356-18.356-18.356c-10.29,0-18.356,8.066-18.356,18.356C470.756,576.552,479.029,584.805,489.112,584.805
			L489.112,584.805z M489.112,553.274c7.446,0,13.175,5.729,13.175,13.175s-5.729,13.176-13.175,13.176s-13.175-5.73-13.175-13.176
			C475.937,559.188,481.875,553.274,489.112,553.274z"/>
	</g>
	<g>
		<path fill-rule="evenodd" clip-rule="evenodd" fill="#FFFFFF" d="M674.359,647.868c1.618,0,2.59-0.973,2.59-2.59v-47.297
			c0-1.618-0.973-2.591-2.59-2.591H445.756c-1.618,0-2.59,0.973-2.59,2.591v47.297c0,1.618,0.973,2.59,2.59,2.59H674.359
			L674.359,647.868z M448.347,642.688v-42.117h223.422v42.117H448.347z"/>
	</g>
</g>
<path fill-rule="evenodd" clip-rule="evenodd" fill="#FFFFFF" d="M2812.404,521.254v-46.995c0-2.271-1.3-3.571-3.571-3.571h-88.489
	H2676.1c-2.271,0-3.571,1.3-3.571,3.571v50.566v50.564v50.565v50.565v50.564v50.565c0,2.271,1.3,3.571,3.571,3.571h88.488h88.49
	h88.488h88.489c2.069,0,3.396-1.083,3.555-3.153v-50.564v-0.837v-49.728v-0.837v-49.728v-0.837v-50.565
	c-0.159-2.069-1.485-3.152-3.555-3.152h-44.245h-40.673v-46.994c0-2.271-1.3-3.571-3.571-3.571h-88.488H2812.404L2812.404,521.254z
	 M2679.671,730.656h40.673h40.674v43.423h-81.347V730.656L2679.671,730.656z M2768.159,730.656h40.674h40.674v43.423h-81.348
	V730.656L2768.159,730.656z M2856.648,730.656h40.674h40.674v43.423h-81.348V730.656L2856.648,730.656z M2679.671,680.091h37.103
	v43.423h-37.103V680.091L2679.671,680.091z M2723.915,680.091h40.673h40.674v43.423h-40.674h-40.673V680.091L2723.915,680.091z
	 M2812.404,680.091h40.674h40.673v43.423h-40.673h-40.674V680.091L2812.404,680.091z M2900.894,680.091h40.673h40.674v43.423
	h-40.674h-40.673V680.091L2900.894,680.091z M2679.671,629.526h40.673h40.674v43.423h-40.674h-40.673V629.526L2679.671,629.526z
	 M2768.159,629.526h40.674h40.674v43.423h-40.674h-40.674V629.526L2768.159,629.526z M2856.648,629.526h40.674h40.674v43.423
	h-40.674h-40.674V629.526L2856.648,629.526z M2679.671,578.96h37.103v43.423h-37.103V578.96L2679.671,578.96z M2723.915,578.96
	h40.673h40.674v43.423h-40.674h-40.673V578.96L2723.915,578.96z M2812.404,578.96h40.674h40.673v43.423h-40.673h-40.674V578.96
	L2812.404,578.96z M2900.894,578.96h40.673h40.674v43.423h-40.674h-40.673V578.96L2900.894,578.96z M2679.671,528.396h40.673h40.674
	v43.423h-40.674h-40.673V528.396L2679.671,528.396z M2768.159,528.396h40.674h40.674v43.423h-40.674h-40.674V528.396
	L2768.159,528.396z M2856.648,571.819v-43.423h81.348v43.423h-40.674H2856.648L2856.648,571.819z M2716.773,477.831v43.423h-37.103
	v-43.423H2716.773L2716.773,477.831z M2723.915,521.254v-43.423h81.347v43.423h-40.674H2723.915z"/>
<g>
	<path fill-rule="evenodd" clip-rule="evenodd" fill="#FFFFFF" d="M1808.277,756.198h93.022l-35.948-155.143
		c-0.315-1.577-1.576-2.522-3.153-2.522h-15.136c-1.576,0-2.838,0.946-3.153,2.522L1808.277,756.198L1808.277,756.198z
		 M1905.083,762.505h-100.905c-0.946,0-1.893-0.315-2.522-1.261c-0.631-0.631-0.631-1.577-0.631-2.523l36.894-159.242
		c0.946-4.1,4.729-7.253,9.145-7.253h15.136c4.415,0,8.199,3.153,9.146,7.253l36.894,159.242c0.315,0.946,0,1.893-0.631,2.523
		C1906.976,762.189,1906.029,762.505,1905.083,762.505z"/>
	<path fill-rule="evenodd" clip-rule="evenodd" fill="#FFFFFF" d="M1801.024,762.505c-3.469,0-6.307,2.838-6.307,6.307
		s2.838,6.307,6.307,6.307h107.213c3.468,0,6.307-2.838,6.307-6.307s-2.839-6.307-6.307-6.307H1801.024L1801.024,762.505z
		 M1908.237,781.425h-107.213c-6.938,0-12.613-5.676-12.613-12.613s5.676-12.613,12.613-12.613h107.213
		c6.937,0,12.613,5.676,12.613,12.613S1915.174,781.425,1908.237,781.425z"/>
	<path fill-rule="evenodd" clip-rule="evenodd" fill="#FFFFFF" d="M1830.666,658.446h47.93l-5.676-25.227h-36.263L1830.666,658.446
		L1830.666,658.446z M1882.695,664.752h-55.813c-0.946,0-1.893-0.315-2.523-1.261c-0.63-0.63-0.945-1.892-0.63-2.522l7.252-31.534
		c0.315-1.576,1.577-2.522,3.153-2.522h41.309c1.577,0,2.838,0.946,3.153,2.522l7.253,31.534c0.315,0.946,0,1.892-0.631,2.522
		C1884.587,664.437,1883.642,664.752,1882.695,664.752z"/>
	<path fill-rule="evenodd" clip-rule="evenodd" fill="#FFFFFF" d="M1816.16,721.512h76.941l-5.677-25.227h-65.273L1816.16,721.512
		L1816.16,721.512z M1897.2,727.818h-84.824c-0.946,0-1.892-0.315-2.522-1.262c-0.631-0.63-0.946-1.576-0.631-2.522l7.253-31.533
		c0.315-1.577,1.577-2.523,3.153-2.523h70.318c1.577,0,2.838,0.946,3.154,2.523l7.252,31.533c0.315,0.946,0,1.893-0.631,2.522
		C1899.093,727.503,1898.146,727.818,1897.2,727.818z"/>
</g>
<g>
	<g>
		<path fill-rule="evenodd" clip-rule="evenodd" fill="#FFFFFF" d="M1065.54,326.443l-0.143-0.143l-31.687-96.021l-0.057-0.23
			c-0.216-0.863-1.387-1.747-2.272-1.747h-31.134c-1.107,0-2.905,0.507-3.215,1.747l-0.057,0.23l-31.686,96.019l-0.143,0.143
			v452.095c0,2.109,0.915,3.023,3.023,3.023h94.346c2.108,0,3.024-0.914,3.024-3.023V326.443L1065.54,326.443z M971.193,775.512
			V326.508l31.054-92.158h27.183l30.063,92.191v448.971H971.193z"/>
	</g>
	<g>
		<path fill-rule="evenodd" clip-rule="evenodd" fill="#FFFFFF" d="M1175.731,781.56c2.108,0,3.024-0.915,3.024-3.023
			s-0.916-3.024-3.024-3.024H902.127c-2.109,0-3.024,0.916-3.024,3.024c0,2.109,0.915,3.023,3.024,3.023H1175.731z"/>
	</g>
	<g>
		<path fill-rule="evenodd" clip-rule="evenodd" fill="#FFFFFF" d="M968.17,423.042c2.108,0,3.023-0.915,3.023-3.023v-94.346
			c0-2.108-0.915-3.024-3.023-3.024h-37.738c-2.109,0-3.023,0.916-3.023,3.024v94.346c0,2.109,0.915,3.023,3.023,3.023H968.17
			L968.17,423.042z M933.455,416.996v-88.3h31.692v88.3H933.455z"/>
	</g>
	<g>
		<path fill-rule="evenodd" clip-rule="evenodd" fill="#FFFFFF" d="M883.258,404.174c2.108,0,3.023-0.916,3.023-3.024v-56.608
			c0-2.108-0.915-3.023-3.023-3.023h-47.173c-2.108,0-3.023,0.915-3.023,3.023v18.869c0,22.878,17.884,40.763,40.762,40.763
			L883.258,404.174L883.258,404.174z M839.108,347.566h41.126v50.56h-6.411c-19.578,0-34.715-15.137-34.715-34.715V347.566z"/>
	</g>
	<g>
		<path fill-rule="evenodd" clip-rule="evenodd" fill="#FFFFFF" d="M971.135,780.732l93.527-84.173
			c0.638-0.716,0.878-2.014,0.878-2.935c0-0.746-1.147-2.208-1.69-2.8l-90.848-72.678l91.386-73.109l0.231-0.154
			c0.801-0.534,0.92-1.304,0.92-2.214c0-0.746-1.146-2.206-1.689-2.797l-90.849-72.679l91.506-73.205l0.37-0.222
			c1.134-0.68,0.721-2.979,0.057-3.865l-0.198-0.265l-0.17-0.284c-0.676-1.125-2.913-0.724-3.813-0.095l-94.458,75.566l-0.231,0.154
			c-0.8,0.534-0.919,1.305-0.919,2.214c0,0.746,1.145,2.206,1.688,2.798l90.849,72.679l-91.387,73.109l-0.231,0.154
			c-0.8,0.534-0.919,1.305-0.919,2.214c0,0.747,1.147,2.209,1.691,2.801l91.418,73.335l-91.309,82.278
			c-0.946,0.992-2.045,2.848-0.848,4.045c0.72,0.72,1.042,0.953,2.071,0.953C969.296,781.56,970.159,781.208,971.135,780.732z"/>
	</g>
	<g>
		<path fill-rule="evenodd" clip-rule="evenodd" fill="#FFFFFF" d="M1064.675,775.612l-91.31-82.279l91.023-72.819l0.232-0.154
			c0.8-0.533,0.919-1.304,0.919-2.213c0-0.746-1.147-2.207-1.69-2.799l-90.848-72.678l91.388-73.11l0.232-0.155
			c0.799-0.532,0.918-1.304,0.918-2.212c0-0.746-1.147-2.207-1.69-2.799l-93.91-75.129c-0.965-0.649-3.497-0.288-4.19,0.636
			c-0.697,0.929-0.322,3.537,0.606,4.234l0.08,0.06l91.248,72.998l-91.388,73.11l-0.232,0.155c-0.799,0.533-0.917,1.304-0.917,2.212
			c0,0.746,1.146,2.207,1.689,2.799l90.848,72.678l-91.387,73.109l-0.23,0.154c-0.8,0.534-0.92,1.304-0.92,2.215
			c0,0.963,0.192,1.292,0.846,1.963l94.333,84.9l0.119,0.119c0.394,0.393,1.509,0.953,2.071,0.953c0.91,0,1.681-0.119,2.214-0.92
			l0.099-0.147l0.106-0.141C1066.007,778.922,1065.892,776.914,1064.675,775.612z"/>
	</g>
	<g>
		<path fill-rule="evenodd" clip-rule="evenodd" fill="#FFFFFF" d="M970.533,393.747l93.841-65.69
			c0.892-0.747,1.254-3.273,0.561-4.197c-1.046-1.396-3.284-1.062-4.628-0.324l-94.008,65.805c-1.33,1.064-0.993,3.268-0.264,4.592
			c0.53,0.704,1.286,0.807,2.118,0.807C968.621,394.701,969.981,394.024,970.533,393.747z"/>
	</g>
	<g>
		<path fill-rule="evenodd" clip-rule="evenodd" fill="#FFFFFF" d="M1060.153,393.746c0.552,0.278,1.912,0.955,2.363,0.993
			c0.909,0,1.681-0.119,2.214-0.919l0.154-0.23l0.173-0.217c1.054-1.319,1.47-2.719-0.178-3.708l-0.193-0.116l-94.699-66.289
			l-0.16-0.128c-1.318-1.055-2.719-1.469-3.707,0.179l-0.222,0.37l-0.27,0.337c-1.056,1.319-1.466,2.716,0.181,3.706l0.193,0.116
			L1060.153,393.746z"/>
	</g>
	<g>
		<path fill-rule="evenodd" clip-rule="evenodd" fill="#FFFFFF" d="M1386.167,422.069c0.175-0.718,0.422-1.91,0.283-2.269
			l-0.221-0.332l-47.352-94.703c-0.636-1.272-1.242-2.117-2.757-2.117h-273.605c-2.109,0-3.023,0.917-3.023,3.024v94.346
			c0,2.108,0.915,3.023,3.023,3.023h320.779C1384.368,423.042,1385.314,422.669,1386.167,422.069L1386.167,422.069z
			 M1065.54,416.996v-88.3h268.883l44.148,88.3H1065.54z"/>
	</g>
	<g>
		<path fill-rule="evenodd" clip-rule="evenodd" fill="#FFFFFF" d="M930.431,441.913c2.108,0,3.023-0.916,3.023-3.023V306.803
			c0-2.108-0.915-3.022-3.023-3.022h-47.173c-2.108,0-3.023,0.914-3.023,3.022v132.086c0,2.108,0.915,3.023,3.023,3.023H930.431
			L930.431,441.913z M886.281,435.865V309.827h41.126v126.038H886.281z"/>
	</g>
	<g>
		<path fill-rule="evenodd" clip-rule="evenodd" fill="#FFFFFF" d="M1299.887,422.658l0.183-0.183l0.675-0.405
			c1.117-0.67,0.728-2.906,0.094-3.812l-75.392-94.241c-1.21-1.512-3.875-1.512-5.084,0l-72.936,91.169l-73.206-91.507l-0.222-0.37
			c-0.679-1.134-2.979-0.718-3.863-0.056l-0.265,0.198l-0.284,0.17c-1.125,0.675-0.723,2.913-0.095,3.812l75.394,94.241
			c1.209,1.512,3.874,1.512,5.083,0l72.936-91.17l73.109,91.387l0.154,0.231c0.534,0.8,1.305,0.919,2.214,0.919
			C1298.696,423.042,1299.476,422.825,1299.887,422.658z"/>
	</g>
	<g>
		<path fill-rule="evenodd" clip-rule="evenodd" fill="#FFFFFF" d="M1300.832,327.444c0.649-0.966,0.29-3.497-0.634-4.19
			c-0.93-0.697-3.536-0.325-4.234,0.604l-0.06,0.081l-72.998,91.248l-72.936-91.17c-1.209-1.511-3.874-1.511-5.083,0l-75.386,94.231
			c-0.619,0.917-0.317,3.063,0.405,3.959c0.572,0.283,1.656,0.802,2.045,0.834c0.908,0,1.68-0.118,2.212-0.918l0.154-0.232
			l73.11-91.388l72.936,91.17c1.209,1.512,3.874,1.512,5.084,0L1300.832,327.444z"/>
	</g>
	<g>
		<path fill-rule="evenodd" clip-rule="evenodd" fill="#FFFFFF" d="M1301.259,422.215l52.77-63.135l0.203-0.203
			c1.231-1.229,0.036-3.163-0.944-4.142c-1.172-1.173-2.975-0.14-3.973,0.782l-52.801,63.172l-0.203,0.202
			c-1.107,1.106-0.25,2.768,0.615,3.785c0.419,0.163,1.152,0.366,1.457,0.366C1299.286,423.042,1300.534,422.814,1301.259,422.215z"
			/>
	</g>
	<g>
		<path fill-rule="evenodd" clip-rule="evenodd" fill="#FFFFFF" d="M1298.383,536.259c2.108,0,3.023-0.915,3.023-3.023V420.02
			c0-2.108-0.915-3.023-3.023-3.023s-3.024,0.915-3.024,3.023v113.216C1295.358,535.344,1296.274,536.259,1298.383,536.259z"/>
	</g>
	<g>
		<path fill-rule="evenodd" clip-rule="evenodd" fill="#FFFFFF" d="M1317.251,592.867c2.108,0,3.024-0.915,3.024-3.023v-11.322
			c0-18.227-6.959-34.493-19.822-47.356c-1.269-1.269-2.873-1.277-4.14-0.002l-0.08,0.08l-0.082,0.077
			c-13.058,12.184-19.662,29.487-19.662,47.203v11.321c0,2.108,0.915,3.023,3.023,3.023H1317.251L1317.251,592.867z
			 M1282.536,586.82v-8.298c0-12.706,3.276-24.357,10.595-34.811l5.252-7.502l5.252,7.502c7.318,10.454,10.593,22.106,10.593,34.811
			v8.298H1282.536z"/>
	</g>
	<g>
		<path fill-rule="evenodd" clip-rule="evenodd" fill="#FFFFFF" d="M1298.383,621.17c2.108,0,3.023-0.915,3.023-3.023v-28.304
			c0-2.109-0.915-3.023-3.023-3.023s-3.024,0.915-3.024,3.023v28.304C1295.358,620.256,1296.274,621.17,1298.383,621.17z"/>
	</g>
	<g>
		<path fill-rule="evenodd" clip-rule="evenodd" fill="#FFFFFF" d="M1298.383,677.778c17.217,0,31.327-14.11,31.327-31.327
			c0-17.218-14.11-31.327-31.327-31.327c-2.108,0-3.024,0.914-3.024,3.023s0.916,3.023,3.024,3.023
			c13.917,0,25.279,11.364,25.279,25.281c0,13.916-11.363,25.28-25.279,25.28c-13.917,0-25.281-11.364-25.281-25.28
			c0-2.108-0.915-3.023-3.023-3.023c-2.108,0-3.024,0.914-3.024,3.023C1267.055,663.668,1281.166,677.778,1298.383,677.778z"/>
	</g>
</g>
<g>
	<g>
		<path fill-rule="evenodd" clip-rule="evenodd" fill="#FFFFFF" d="M2175.199,602.314c14.854,0,27.023-12.168,27.023-27.022
			c0-2.333-1.225-3.559-3.559-3.559c-2.333,0-3.559,1.226-3.559,3.559c0,10.957-8.949,19.906-19.906,19.906
			c-10.956,0-19.905-8.949-19.905-19.906s8.949-19.906,19.905-19.906c1.144,0,1.659-0.296,2.461-1.098
			c0.802-0.802,1.098-1.318,1.098-2.461V371.933c0-2.333-1.225-3.559-3.559-3.559c-2.333,0-3.558,1.225-3.558,3.559v176.231
			l-3.287,0.773c-12.006,2.824-20.178,14.158-20.178,26.354C2148.177,590.146,2160.346,602.314,2175.199,602.314z"/>
	</g>
	<g>
		<path fill-rule="evenodd" clip-rule="evenodd" fill="#FFFFFF" d="M2159.557,531.921h31.286c2.333,0,3.559-1.225,3.559-3.558
			c0-2.333-1.226-3.559-3.559-3.559h-31.286c-2.334,0-3.559,1.226-3.559,3.559C2155.998,530.696,2157.223,531.921,2159.557,531.921z
			"/>
	</g>
	<g>
		<path fill-rule="evenodd" clip-rule="evenodd" fill="#FFFFFF" d="M2172.438,374.182l118.873,158.759l0.064,0.097
			c0.615,0.921,1.479,1.198,2.514,1.228l0.243-0.243l0.952-0.317c4.933-1.645,9.436-2.565,14.645-2.565h54.751
			c0.965,0,2.623-0.34,2.904-1.464c0.357-1.429,0.724-3.388-0.443-4.555l-0.055-0.054l-167.372-179.886
			c-1.075-1.052-2.236-1.419-3.636-0.719c-1.372,0.687-3.118,2.353-3.118,4.009c0,10.023-7.931,18.886-17.918,19.885l-0.211,0.021
			h-0.213c-0.995,0-1.912,0.873-2.214,1.778l-0.18,0.542l-0.317,0.475C2171.237,371.874,2171.995,373.484,2172.438,374.182
			L2172.438,374.182z M2356.312,524.804h-46.583c-3.781,0-7.97,0.74-11.678,1.481l-2.638,0.527L2181.41,374.537l4.189-2.394
			c4.61-2.634,8.15-5.999,11.082-10.396l2.985-4.477L2356.312,524.804z"/>
	</g>
	<g>
		<path fill-rule="evenodd" clip-rule="evenodd" fill="#FFFFFF" d="M2172.854,375.492c14.854,0,27.022-12.169,27.022-27.023
			s-12.169-27.023-27.022-27.023c-14.854,0-27.023,12.168-27.023,27.023S2157.999,375.492,2172.854,375.492L2172.854,375.492z
			 M2172.854,328.563c10.956,0,19.906,8.949,19.906,19.905s-8.949,19.906-19.906,19.906s-19.906-8.949-19.906-19.906
			S2161.897,328.563,2172.854,328.563z"/>
	</g>
	<g>
		<path fill-rule="evenodd" clip-rule="evenodd" fill="#FFFFFF" d="M2211.537,361.351c-2.024,0.15-3.474,1.388-3.952,3.379
			l-3.874,50.363c0.05,2.125,1.222,3.846,3.398,4.244l54.744,6.738l-4.176,60.96c0.045,2.134,1.221,3.865,3.408,4.261l73.161,9.34
			c0.431,0,0.861,0,1.292,0c1.943,0,3.293-1.864,3.643-3.613c0.319-1.596-1.173-3.505-2.859-3.505h-0.274l-70.735-9.153
			l4.174-60.937c-0.045-2.131-1.218-3.86-3.4-4.258l-54.761-6.74l3.41-46.887C2214.688,363.436,2213.506,361.901,2211.537,361.351z"
			/>
	</g>
	<g>
		<path fill-rule="evenodd" clip-rule="evenodd" fill="#FFFFFF" d="M2221.313,719.7c7.579,1.166,12.899,8.456,12.899,15.931
			c0,7.544-5.338,13.793-12.478,15.831l-0.165,0.047l-0.168,0.034c-1.896,0.379-2.831,1.748-2.831,3.643
			c0,1.95,1.597,3.559,3.559,3.559h219c2.334,0,3.56-1.226,3.56-3.559c0-1.895-0.937-3.264-2.832-3.643l-0.169-0.034l-0.165-0.047
			c-7.138-2.039-12.477-8.287-12.477-15.831c0-7.543,5.339-13.792,12.476-15.831l0.167-0.048l0.17-0.034
			c1.895-0.378,2.83-1.747,2.83-3.641c0-2.333-1.226-3.559-3.56-3.559h-219c-2.334,0-3.559,1.226-3.559,3.559
			C2218.57,717.941,2219.477,719.298,2221.313,719.7L2221.313,719.7z M2426.309,751.626h-190.141l2.339-5.846
			c1.3-3.249,2.041-6.643,2.041-10.149s-0.742-6.9-2.042-10.149l-2.337-5.846h190.139l-2.338,5.846
			c-1.3,3.249-2.042,6.643-2.042,10.149s0.742,6.899,2.042,10.148L2426.309,751.626z"/>
	</g>
	<g>
		<path fill-rule="evenodd" clip-rule="evenodd" fill="#FFFFFF" d="M2261.052,641.405l0.189-0.188l65.851-23.801
			c14.298-5.005,22.956-18.541,22.956-33.52v-55.532c0-2.333-1.225-3.559-3.558-3.559h-35.979c-10.947,0-21.273,2.541-30.446,8.644
			c-14.301,10.028-23.171,25.841-23.171,43.409v61.007c0,0.792,0.686,1.852,1.317,2.618
			C2259.187,640.846,2260.449,641.311,2261.052,641.405L2261.052,641.405z M2284.529,539.001c7.314-5.469,16.951-7.862,25.982-7.862
			h33.201v52.756c0,11.949-7.348,22.068-18.267,26.617l-0.102,0.042l-60.55,21.626v-56.107
			C2264.795,561.28,2272.599,547.541,2284.529,539.001z"/>
	</g>
	<g>
		<path fill-rule="evenodd" clip-rule="evenodd" fill="#FFFFFF" d="M2456.772,641.422h39.107c2.333,0,3.559-1.225,3.559-3.559v-7.04
			c0-15.226-12.541-27.806-27.806-27.806h-38.324c-2.334,0-3.56,1.226-3.56,3.559v7.822
			C2429.749,629.253,2441.918,641.422,2456.772,641.422L2456.772,641.422z M2492.726,634.304h-35.953
			c-10.956,0-19.906-8.949-19.906-19.905v-4.263h34.767c10.905,0,19.698,8.821,20.671,19.519L2492.726,634.304z"/>
	</g>
	<g>
		<path fill-rule="evenodd" clip-rule="evenodd" fill="#FFFFFF" d="M2261.325,557.219c-2.097,6.316-3.648,12.952-3.648,19.637
			v92.292c0,2.334,1.226,3.559,3.56,3.559h234.644c2.333,0,3.559-1.225,3.559-3.559v-38.325c0-15.226-12.541-27.806-27.806-27.806
			h-81.695v-59.012c0-10.944-8.258-19.202-19.201-19.202h-61.008C2288.363,524.804,2269.425,537.482,2261.325,557.219
			L2261.325,557.219z M2268.293,560.249c6.852-16.94,23.085-28.328,41.436-28.328h61.008c6.665,0,12.085,5.429,12.085,12.085v62.571
			c0,2.333,1.225,3.559,3.558,3.559h85.254c11.739,0,20.688,8.949,20.688,20.688v34.767h-227.525v-88.735
			C2264.795,570.945,2265.663,565.58,2268.293,560.249z"/>
	</g>
	<g>
		<path fill-rule="evenodd" clip-rule="evenodd" fill="#FFFFFF" d="M2292.521,696.171h78.215c2.333,0,3.559-1.225,3.559-3.558
			v-23.465c0-2.333-1.226-3.558-3.559-3.558h-78.215c-2.333,0-3.559,1.225-3.559,3.558v23.465
			C2288.963,694.946,2290.188,696.171,2292.521,696.171L2292.521,696.171z M2367.178,689.055h-71.098v-16.348h71.098V689.055z"/>
	</g>
	<g>
		<path fill-rule="evenodd" clip-rule="evenodd" fill="#FFFFFF" d="M2218.218,758.744c12.508,0,23.112-10.605,23.112-23.113
			s-10.604-23.112-23.112-23.112s-23.112,10.604-23.112,23.112S2205.709,758.744,2218.218,758.744L2218.218,758.744z
			 M2218.218,719.636c8.609,0,15.994,7.385,15.994,15.995s-7.384,15.995-15.994,15.995s-15.995-7.386-15.995-15.995
			S2209.608,719.636,2218.218,719.636z"/>
	</g>
	<g>
		<path fill-rule="evenodd" clip-rule="evenodd" fill="#FFFFFF" d="M2445.04,758.744c12.508,0,23.112-10.605,23.112-23.113
			s-10.604-23.112-23.112-23.112c-12.507,0-23.112,10.604-23.112,23.112S2432.531,758.744,2445.04,758.744L2445.04,758.744z
			 M2445.04,719.636c8.61,0,15.995,7.385,15.995,15.995s-7.385,15.995-15.995,15.995s-15.994-7.385-15.994-15.995
			S2436.431,719.636,2445.04,719.636z"/>
	</g>
	<g>
		<path fill-rule="evenodd" clip-rule="evenodd" fill="#FFFFFF" d="M2210.396,782.208h242.465c25.805,0,46.577-20.772,46.577-46.577
			s-20.773-46.576-46.577-46.576h-242.465c-25.805,0-46.577,20.771-46.577,46.576S2184.592,782.208,2210.396,782.208
			L2210.396,782.208z M2452.861,696.171c21.906,0,39.459,17.553,39.459,39.459c0,21.907-17.552,39.459-39.459,39.459h-242.465
			c-21.906,0-39.46-17.553-39.46-39.459s17.554-39.459,39.46-39.459H2452.861z"/>
	</g>
</g>
<g>
	<g>
		<path fill-rule="evenodd" clip-rule="evenodd" fill="#FFFFFF" d="M235.203,746.752c2.476,0,3.742-1.268,3.742-3.742
			c0-2.476-1.267-3.741-3.742-3.741h-17.385c-2.475,0-3.741,1.266-3.741,3.741c0,2.475,1.266,3.742,3.741,3.742H235.203z"/>
	</g>
	<g>
		<path fill-rule="evenodd" clip-rule="evenodd" fill="#FFFFFF" d="M235.203,720.676c2.476,0,3.742-1.268,3.742-3.743
			c0-2.475-1.267-3.741-3.742-3.741h-17.385c-2.475,0-3.741,1.267-3.741,3.741c0,2.476,1.266,3.743,3.741,3.743H235.203z"/>
	</g>
	<g>
		<path fill-rule="evenodd" clip-rule="evenodd" fill="#FFFFFF" d="M296.048,781.521c2.476,0,3.742-1.267,3.742-3.742
			c0-2.475-1.267-3.742-3.742-3.742H191.742c-2.476,0-3.742,1.268-3.742,3.742c0,2.476,1.266,3.742,3.742,3.742H296.048z"/>
	</g>
	<g>
		<path fill-rule="evenodd" clip-rule="evenodd" fill="#FFFFFF" d="M269.972,320.836c2.475,0,3.742-1.267,3.742-3.742v-22.6
			c0-13.782-10.82-24.603-24.603-24.603H238.68c-13.782,0-24.603,10.821-24.603,24.603v22.6c0,2.475,1.266,3.742,3.741,3.742
			H269.972L269.972,320.836z M221.561,313.352v-18.858c0-9.687,7.434-17.119,17.119-17.119h10.431c9.686,0,17.12,7.433,17.12,17.119
			v18.858H221.561z"/>
	</g>
	<g>
		<path fill-rule="evenodd" clip-rule="evenodd" fill="#FFFFFF" d="M269.972,416.45c2.475,0,3.742-1.267,3.742-3.742v-60.846
			c0-2.475-1.267-3.742-3.742-3.742h-52.153c-2.475,0-3.741,1.267-3.741,3.742v60.846c0,2.476,1.267,3.742,3.741,3.742H269.972
			L269.972,416.45z M221.561,408.965v-53.36h44.669v53.36H221.561z"/>
	</g>
	<g>
		<path fill-rule="evenodd" clip-rule="evenodd" fill="#FFFFFF" d="M269.972,781.521c2.475,0,3.742-1.267,3.742-3.742V447.477
			c0-2.475-1.267-3.742-3.742-3.742h-52.153c-2.475,0-3.741,1.267-3.741,3.742v330.302c0,2.476,1.266,3.742,3.741,3.742H269.972
			L269.972,781.521z M221.561,774.036V451.218h44.669v322.818H221.561z"/>
	</g>
	<g>
		<path fill-rule="evenodd" clip-rule="evenodd" fill="#FFFFFF" d="M330.816,468.603c2.475,0,3.743-1.267,3.743-3.742v-17.385
			c0-2.475-1.268-3.742-3.743-3.742s-3.742,1.267-3.742,3.742v17.385C327.075,467.336,328.341,468.603,330.816,468.603z"/>
	</g>
	<g>
		<path fill-rule="evenodd" clip-rule="evenodd" fill="#FFFFFF" d="M391.662,468.603c2.475,0,3.742-1.267,3.742-3.742v-17.385
			c0-2.475-1.266-3.742-3.742-3.742c-2.475,0-3.743,1.267-3.743,3.742v17.385C387.919,467.336,389.188,468.603,391.662,468.603z"/>
	</g>
	<g>
		<path fill-rule="evenodd" clip-rule="evenodd" fill="#FFFFFF" d="M96.128,468.603c2.475,0,3.743-1.267,3.743-3.742v-17.385
			c0-2.475-1.267-3.742-3.743-3.742c-2.475,0-3.742,1.267-3.742,3.742v17.385C92.386,467.336,93.653,468.603,96.128,468.603z"/>
	</g>
	<g>
		<path fill-rule="evenodd" clip-rule="evenodd" fill="#FFFFFF" d="M156.974,468.603c2.475,0,3.742-1.267,3.742-3.742v-17.385
			c0-2.475-1.267-3.742-3.742-3.742c-2.476,0-3.742,1.267-3.742,3.742v17.385C153.231,467.336,154.499,468.603,156.974,468.603z"/>
	</g>
	<g>
		<path fill-rule="evenodd" clip-rule="evenodd" fill="#FFFFFF" d="M330.816,372.989c2.475,0,3.743-1.267,3.743-3.742v-17.384
			c0-2.475-1.268-3.742-3.743-3.742s-3.742,1.267-3.742,3.742v17.384C327.075,371.722,328.341,372.989,330.816,372.989z"/>
	</g>
	<g>
		<path fill-rule="evenodd" clip-rule="evenodd" fill="#FFFFFF" d="M156.974,372.989c2.475,0,3.742-1.267,3.742-3.742v-17.384
			c0-2.475-1.267-3.742-3.742-3.742c-2.476,0-3.742,1.267-3.742,3.742v17.384C153.231,371.722,154.499,372.989,156.974,372.989z"/>
	</g>
	<g>
		<path fill-rule="evenodd" clip-rule="evenodd" fill="#FFFFFF" d="M417.739,451.218c2.475,0,3.742-1.267,3.742-3.742v-34.769
			c0-2.475-1.267-3.743-3.742-3.743H70.052c-2.476,0-3.742,1.268-3.742,3.743v34.769c0,2.475,1.267,3.742,3.742,3.742H417.739
			L417.739,451.218z M73.794,443.735V416.45h340.202v27.285H73.794z"/>
	</g>
	<g>
		<path fill-rule="evenodd" clip-rule="evenodd" fill="#FFFFFF" d="M365.586,355.605c2.475,0,3.742-1.268,3.742-3.743v-34.768
			c0-2.475-1.267-3.742-3.742-3.742H122.205c-2.475,0-3.742,1.267-3.742,3.742v34.768c0,2.475,1.267,3.743,3.742,3.743H365.586
			L365.586,355.605z M125.947,348.121v-27.285h235.896v27.285H125.947z"/>
	</g>
</g>
<g>
	<g>
		<path fill-rule="evenodd" clip-rule="evenodd" fill="#FFFFFF" d="M649.466,352.696c-0.032,0.079-0.06,0.159-0.085,0.241
			l-0.087,0.284l-0.161,0.25c-0.04,0.062-0.077,0.125-0.111,0.19l-13.363,42.218c-0.568,2.051-0.301,4.268,0.74,6.125l0.616,1.098
			l-4.157,6.82c-0.573,0.94-0.603,2.116-0.076,3.082c0.526,0.966,1.529,1.578,2.628,1.604c1.099,0.027,2.133-0.538,2.706-1.476
			l4.116-6.745l1.264,0.05c0.692,0.027,1.389-0.039,2.023-0.181c1.457-0.359,2.794-1.092,3.852-2.107l31.396-31.119
			c0.094-0.16,0.183-0.306,0.309-0.461l0.086-0.106l0.099-0.095c0.056-0.053,0.109-0.107,0.16-0.165L728.9,294.34l1.26,0.046
			c0.716,0.026,1.436-0.04,2.096-0.187c2.13-0.516,3.976-1.856,5.117-3.728l25.561-41.922l6.292,3.845
			c3.455,2.111,4.559,6.667,2.45,10.124l-21.726,35.604c-0.882,1.445-0.439,3.346,1.007,4.234c1.439,0.884,3.346,0.441,4.229-1.005
			l21.726-35.604c1.863-3.054,2.439-6.724,1.597-10.201c-0.843-3.481-3.041-6.475-6.091-8.347l-6.278-3.854l1.105-1.829
			c3.283-5.433,4.271-11.891,2.762-18.056c-1.508-6.164-5.356-11.427-10.774-14.732c-5.542-3.382-12.194-4.371-18.48-2.75
			c-6,1.547-11.111,5.318-14.34,10.611l-29.872,48.976c-1.53,2.508-1.585,5.652-0.173,8.225l0.6,1.093L649.466,352.696
			L649.466,352.696z M643.75,401.177l-2.607-2.298l12.588-39.794l20.044,12.226L643.75,401.177L643.75,401.177z M677.681,366.522
			l-21.482-13.109l45.706-74.895l10.744,6.557l10.733,6.554L677.681,366.522L677.681,366.522z M731.027,289.123l-30.383-18.541
			l30.977-50.764c3.249-5.544,9.252-8.91,15.676-8.793c6.43,0.117,12.298,3.694,15.346,9.358c3.042,5.652,2.796,12.542-0.622,17.931
			L731.027,289.123z"/>
	</g>
	<g>
		<path fill-rule="evenodd" clip-rule="evenodd" fill="#FFFFFF" d="M651.339,328.592c-0.397-1.638-2.06-2.652-3.698-2.256
			l-76.019,18.402c-1.637,0.396-2.65,2.061-2.254,3.697c0.396,1.636,2.06,2.65,3.695,2.255l76.019-18.402
			C650.718,331.892,651.734,330.229,651.339,328.592z"/>
	</g>
	<g>
		<path fill-rule="evenodd" clip-rule="evenodd" fill="#FFFFFF" d="M537.586,359.278l10.136-2.454
			c1.636-0.396,2.653-2.059,2.257-3.695c-0.396-1.638-2.06-2.653-3.698-2.257l-10.136,2.454c-1.637,0.396-2.65,2.061-2.254,3.697
			S535.95,359.674,537.586,359.278z"/>
	</g>
	<g>
		<path fill-rule="evenodd" clip-rule="evenodd" fill="#FFFFFF" d="M642.733,306.064l-76.019,18.402
			c-1.636,0.396-2.65,2.059-2.254,3.695c0.396,1.637,2.058,2.654,3.695,2.257l76.019-18.402c1.638-0.396,2.653-2.06,2.257-3.698
			C646.034,306.682,644.37,305.668,642.733,306.064z"/>
	</g>
	<g>
		<path fill-rule="evenodd" clip-rule="evenodd" fill="#FFFFFF" d="M532.679,339.006l10.136-2.454
			c1.638-0.396,2.653-2.06,2.257-3.698c-0.396-1.637-2.061-2.65-3.697-2.254l-10.136,2.454c-1.636,0.396-2.65,2.06-2.255,3.695
			C529.38,338.386,531.042,339.402,532.679,339.006z"/>
	</g>
	<g>
		<path fill-rule="evenodd" clip-rule="evenodd" fill="#FFFFFF" d="M637.826,285.793l-76.019,18.402
			c-1.636,0.396-2.65,2.059-2.255,3.695c0.396,1.636,2.059,2.653,3.696,2.257l76.019-18.402c1.638-0.396,2.653-2.06,2.256-3.698
			C641.127,286.41,639.463,285.396,637.826,285.793z"/>
	</g>
	<g>
		<path fill-rule="evenodd" clip-rule="evenodd" fill="#FFFFFF" d="M527.771,318.735l10.136-2.454
			c1.638-0.396,2.653-2.06,2.257-3.698c-0.396-1.637-2.061-2.65-3.697-2.254l-10.136,2.454c-1.636,0.396-2.651,2.059-2.255,3.695
			C524.473,318.114,526.135,319.131,527.771,318.735z"/>
	</g>
	<g>
		<path fill-rule="evenodd" clip-rule="evenodd" fill="#FFFFFF" d="M632.919,265.521L556.9,283.924
			c-1.636,0.396-2.651,2.059-2.255,3.694c0.396,1.637,2.058,2.654,3.695,2.257l76.019-18.402c1.638-0.397,2.653-2.06,2.256-3.698
			C636.22,266.139,634.556,265.125,632.919,265.521z"/>
	</g>
	<g>
		<path fill-rule="evenodd" clip-rule="evenodd" fill="#FFFFFF" d="M522.864,298.463L533,296.01c1.638-0.397,2.653-2.06,2.256-3.698
			c-0.396-1.637-2.061-2.649-3.697-2.253l-10.136,2.454c-1.636,0.396-2.65,2.059-2.254,3.695
			C519.565,297.843,521.228,298.86,522.864,298.463z"/>
	</g>
	<g>
		<path fill-rule="evenodd" clip-rule="evenodd" fill="#FFFFFF" d="M628.012,245.25l-76.019,18.402
			c-1.636,0.396-2.651,2.059-2.255,3.695c0.396,1.637,2.059,2.653,3.695,2.257l76.019-18.402c1.638-0.397,2.653-2.06,2.256-3.698
			C631.313,245.867,629.648,244.854,628.012,245.25z"/>
	</g>
	<g>
		<path fill-rule="evenodd" clip-rule="evenodd" fill="#FFFFFF" d="M517.958,278.192l10.136-2.454
			c1.638-0.396,2.653-2.06,2.256-3.698c-0.396-1.637-2.061-2.65-3.697-2.254l-10.136,2.454c-1.636,0.396-2.651,2.059-2.255,3.694
			C514.658,277.571,516.32,278.588,517.958,278.192z"/>
	</g>
	<g>
		<path fill-rule="evenodd" clip-rule="evenodd" fill="#FFFFFF" d="M587.732,389.123c-1.637,0.396-2.654,2.059-2.257,3.696
			c0.396,1.638,2.06,2.653,3.698,2.256l35.474-8.587c1.638-0.396,2.653-2.06,2.257-3.698c-0.396-1.637-2.061-2.65-3.697-2.253
			L587.732,389.123z"/>
	</g>
	<g>
		<path fill-rule="evenodd" clip-rule="evenodd" fill="#FFFFFF" d="M678.488,418.587l-3.68-15.203
			c-0.396-1.637-2.059-2.653-3.696-2.257c-1.638,0.396-2.653,2.06-2.256,3.698l3.68,15.203c0.396,1.638,2.06,2.653,3.698,2.256
			C677.871,421.888,678.884,420.224,678.488,418.587z"/>
	</g>
	<g>
		<path fill-rule="evenodd" clip-rule="evenodd" fill="#FFFFFF" d="M567.321,384.257c-1.438-0.877-3.331-0.418-4.208,1.019
			l-6.089,9.975l-9.943-6.067c-1.434-0.842-3.298-0.375-4.165,1.045c-0.866,1.42-0.429,3.291,0.944,4.162l9.974,6.086l-6.096,9.994
			l-0.01,0.017c-0.591,0.931-0.634,2.117-0.111,3.088c0.524,0.974,1.534,1.593,2.64,1.613c1.107,0.021,2.139-0.56,2.699-1.514
			l6.104-10.009l9.946,6.069c1.435,0.842,3.296,0.373,4.162-1.047s0.432-3.289-0.941-4.161l-9.978-6.089l6.09-9.975
			C569.217,387.027,568.758,385.134,567.321,384.257z"/>
	</g>
	<g>
		<path fill-rule="evenodd" clip-rule="evenodd" fill="#FFFFFF" d="M542.392,223.992l40.543-9.814
			c1.638-0.396,2.653-2.06,2.256-3.698c-0.396-1.637-2.061-2.649-3.697-2.253l-40.542,9.814c-1.636,0.396-2.651,2.059-2.255,3.694
			C539.093,223.372,540.755,224.389,542.392,223.992z"/>
	</g>
	<g>
		<path fill-rule="evenodd" clip-rule="evenodd" fill="#FFFFFF" d="M704.294,360.906c-1.636,0.396-2.653,2.058-2.257,3.695
			l15.948,65.883c1.116,4.607,0.359,9.43-2.114,13.474c-2.466,4.032-6.398,6.897-10.993,8.009l-162.174,39.258
			c-4.602,1.114-9.417,0.361-13.457-2.104c-4.041-2.466-6.913-6.404-8.027-11.005L466.014,250.06
			c-1.113-4.595-0.362-9.404,2.097-13.44c2.465-4.048,6.407-6.926,11.013-8.041l23.74-5.747l-0.092,2.827
			c-0.051,1.571,0.092,3.149,0.452,4.679c0.366,1.56,0.907,3.075,1.586,4.526l1.117,2.385l-13.201,3.195
			c-3.496,0.846-6.479,3.024-8.35,6.096c-1.865,3.064-2.433,6.702-1.589,10.188l50.3,207.786c0.845,3.492,3.018,6.472,6.084,8.343
			c3.066,1.871,6.711,2.442,10.203,1.596l141.902-34.351c3.486-0.844,6.462-3.013,8.333-6.073c1.876-3.068,2.449-6.718,1.603-10.213
			l-8.587-35.474c-0.396-1.637-2.058-2.653-3.695-2.257c-1.638,0.397-2.653,2.06-2.256,3.698l8.587,35.474
			c0.953,3.936-1.489,7.941-5.425,8.894l-141.902,34.351c-3.937,0.954-7.941-1.49-8.895-5.427l-50.299-207.786
			c-0.953-3.936,1.492-7.939,5.428-8.892l16.384-3.966l0.831,0.689c5.717,4.738,13.489,6.574,20.713,4.826l70.952-17.176
			c7.277-1.762,13.275-6.884,16.212-13.764l0.424-0.993l16.386-3.967c3.935-0.952,7.939,1.491,8.892,5.426l18.402,76.019
			c0.396,1.638,2.06,2.653,3.698,2.257c1.637-0.396,2.65-2.061,2.254-3.697l-18.402-76.019c-0.845-3.491-3.019-6.47-6.084-8.34
			c-3.065-1.871-6.709-2.441-10.201-1.596l-13.203,3.196l-0.097-2.631c-0.06-1.601-0.269-3.197-0.657-4.751
			c-0.38-1.526-0.976-2.993-1.74-4.366l-1.375-2.473l23.742-5.747c4.601-1.114,9.416-0.36,13.456,2.105
			c4.04,2.465,6.912,6.402,8.025,11.002l14.722,60.817c0.396,1.637,2.061,2.65,3.697,2.254c1.636-0.396,2.65-2.059,2.255-3.695
			l-14.722-60.816c-1.498-6.188-5.356-11.47-10.789-14.786c-5.434-3.316-11.897-4.332-18.085-2.833l-28.07,6.795l-0.722-0.384
			c-3.977-2.114-8.604-2.713-12.985-1.665c-3.938,0.943-7.933-1.487-8.887-5.426c-0.845-3.492-3.019-6.472-6.084-8.343
			c-3.066-1.871-6.71-2.441-10.203-1.596l-40.543,9.814c-3.489,0.845-6.467,3.017-8.338,6.079c-1.874,3.067-2.446,6.714-1.6,10.208
			c0.954,3.939-1.487,7.928-5.421,8.89c-4.38,1.072-8.211,3.717-10.784,7.418l-0.466,0.671l-28.07,6.795
			c-6.194,1.5-11.481,5.364-14.797,10.804c-3.309,5.431-4.321,11.888-2.825,18.07l55.207,228.057
			c1.498,6.189,5.357,11.473,10.792,14.789c5.433,3.315,11.897,4.33,18.085,2.833l162.174-39.258
			c6.183-1.497,11.462-5.35,14.778-10.777c3.322-5.436,4.34-11.905,2.84-18.099l-15.949-65.884
			C707.593,361.525,705.93,360.51,704.294,360.906L704.294,360.906z M528.379,197.41c-0.953-3.936,1.489-7.941,5.425-8.894
			l40.543-9.814c3.938-0.953,7.941,1.49,8.895,5.427c0.845,3.491,3.018,6.47,6.083,8.34c3.065,1.871,6.709,2.441,10.201,1.597
			c3.255-0.788,6.665-0.253,9.522,1.493c2.853,1.743,4.881,4.525,5.667,7.774c1.115,4.604,0.359,9.422-2.109,13.464
			c-2.466,4.037-6.401,6.907-11,8.02l-70.952,17.176c-4.595,1.112-9.403,0.362-13.44-2.097c-4.048-2.465-6.926-6.407-8.042-11.014
			c-0.787-3.252-0.254-6.657,1.488-9.513s4.527-4.887,7.779-5.674c3.494-0.846,6.476-3.022,8.346-6.091
			C528.654,204.54,529.224,200.898,528.379,197.41z"/>
	</g>
</g>
<path fill-rule="evenodd" clip-rule="evenodd" fill="#FFFFFF" d="M2464.601,329.128v22.676c0,12.501,10.175,22.676,22.676,22.676
	h254.198c12.502,0,22.676-10.174,22.676-22.676v-22.676h-9.777V166.044c0-12.502-10.174-22.676-22.676-22.676l-16.432,0v-1.766
	c0-36.765-29.906-66.671-66.671-66.671s-66.672,29.907-66.672,66.671v1.766h-84.869c-12.502,0-22.676,10.174-22.676,22.676v163.084
	H2464.601L2464.601,329.128z M2731.697,149.612c9.061,0,16.432,7.373,16.432,16.432v163.084h-13.309V170.932
	c0-4.417-3.594-8.01-8.011-8.01l-15.029,0l0.676-2.27c0.928-3.115,1.585-6.307,2.045-9.523l0.217-1.517H2731.697L2731.697,149.612z
	 M2591.683,121.269l54.397,22.668l18.627,55.872l-1.865,0.454c-4.671,1.137-9.437,1.767-14.247,1.767
	c-33.323,0-60.428-27.105-60.428-60.428c0-6.289,0.994-12.522,2.926-18.506L2591.683,121.269L2591.683,121.269z M2670.645,197.878
	l-18.479-55.434l41.283-41.286l1.24,1.464c9.262,10.931,14.332,24.645,14.332,38.979c0,24.185-14.475,45.986-36.611,55.517
	L2670.645,197.878L2670.645,197.878z M2648.595,81.174c14.335,0,28.048,5.071,38.983,14.327l1.465,1.241l-41.174,41.171
	l-53.762-22.395l0.888-1.707C2605.393,93.83,2625.983,81.174,2648.595,81.174L2648.595,81.174z M2480.622,166.043
	c0-9.06,7.372-16.432,16.432-16.432h85.418l0.217,1.517c0.459,3.215,1.112,6.407,2.044,9.521l0.68,2.272h-83.47
	c-4.417,0-8.011,3.594-8.011,8.011v158.196h-13.31V166.043L2480.622,166.043z M2715.266,335.372v-6.244h-63.075l-0.915,0.915
	c-5.715,5.715-13.317,8.862-21.399,8.862h-31.006c-8.079,0-15.695-3.14-21.401-8.864l-0.91-0.913h-76.383V169.166h87.793
	l0.479,1.006c11.056,23.172,34.363,38.102,60.146,38.102c25.782,0,49.09-14.929,60.146-38.102l0.48-1.006h19.355v166.207h29.33
	v16.432c0,9.06-7.372,16.432-16.432,16.432h-254.198c-9.06,0-16.432-7.372-16.432-16.432v-16.432H2574l0.504,0.453
	c6.732,6.054,15.316,9.324,24.371,9.324l31.006,0c9.055,0,17.639-3.271,24.371-9.324l0.504-0.453H2715.266L2715.266,335.372z
	 M2493.932,348.682h6.244v6.244h-6.244V348.682L2493.932,348.682z M2621.03,231.359h94.235v6.244h-94.235V231.359L2621.03,231.359z
	 M2601.477,231.359h6.244v6.244h-6.244V231.359L2601.477,231.359z M2588.167,182.476v64.905h-74.682v-64.905H2588.167
	L2588.167,182.476z M2581.923,241.136h-62.193v-52.417h62.193V241.136L2581.923,241.136z M2533.039,221.583h35.574v6.244h-35.574
	V221.583L2533.039,221.583z M2533.039,202.029h35.574v6.244h-35.574V202.029L2533.039,202.029z M2702.367,280.244
	c7.109,0,12.898,5.789,12.898,12.899c0,7.109-5.789,12.899-12.898,12.899s-12.898-5.79-12.898-12.899
	c0-1.306,0.262-2.577,0.651-3.818l0.374-1.192l-19.055-14.287l-1.04,0.694c-2.121,1.416-4.589,2.17-7.14,2.17
	c-2.414,0-4.727-0.702-6.771-1.976l-1.062-0.662l-29.329,23.466l0.409,1.179c0.472,1.358,0.767,2.759,0.767,4.202
	c0,7.109-5.789,12.899-12.899,12.899c-7.109,0-12.898-5.79-12.898-12.899c0-1.063,0.177-2.109,0.439-3.136l0.31-1.213l-23.16-15.442
	l-1,0.75c-2.233,1.676-4.887,2.609-7.686,2.609s-5.452-0.933-7.686-2.609l-1-0.75l-23.161,15.442l0.311,1.213
	c0.263,1.028,0.439,2.072,0.439,3.136c0,7.109-5.79,12.899-12.899,12.899s-12.898-5.79-12.898-12.899s5.789-12.899,12.898-12.899
	c2.799,0,5.452,0.933,7.686,2.608l1,0.75l23.161-15.442l-0.311-1.213c-0.263-1.028-0.439-2.072-0.439-3.136
	c0-7.109,5.79-12.898,12.899-12.898s12.898,5.79,12.898,12.898c0,1.064-0.176,2.108-0.438,3.136l-0.311,1.213l23.159,15.441l1-0.749
	c2.234-1.672,4.888-2.609,7.687-2.609c2.414,0,4.727,0.702,6.771,1.976l1.061,0.662l29.329-23.466l-0.409-1.179
	c-0.471-1.358-0.766-2.759-0.766-4.202c0-7.11,5.789-12.899,12.898-12.899s12.899,5.79,12.899,12.899
	c0,1.306-0.263,2.576-0.652,3.817l-0.374,1.193l19.055,14.287l1.04-0.695C2697.349,280.999,2699.816,280.244,2702.367,280.244
	L2702.367,280.244z M2526.384,309.574c-3.667,0-6.654-2.987-6.654-6.655s2.987-6.655,6.654-6.655c3.668,0,6.655,2.987,6.655,6.655
	S2530.052,309.574,2526.384,309.574L2526.384,309.574z M2570.38,280.244c-3.667,0-6.654-2.987-6.654-6.655s2.987-6.655,6.654-6.655
	s6.655,2.987,6.655,6.655S2574.047,280.244,2570.38,280.244L2570.38,280.244z M2614.376,309.574c-3.668,0-6.655-2.987-6.655-6.655
	s2.987-6.655,6.655-6.655c3.667,0,6.654,2.987,6.654,6.655S2618.043,309.574,2614.376,309.574L2614.376,309.574z M2663.26,270.467
	c-3.668,0-6.655-2.987-6.655-6.655s2.987-6.655,6.655-6.655c3.667,0,6.655,2.987,6.655,6.655S2666.927,270.467,2663.26,270.467
	L2663.26,270.467z M2702.367,299.797c-3.668,0-6.654-2.987-6.654-6.655s2.986-6.655,6.654-6.655c3.667,0,6.654,2.987,6.654,6.655
	S2706.034,299.797,2702.367,299.797L2702.367,299.797z M2699.245,348.682h35.575v6.244h-35.575V348.682L2699.245,348.682z
	 M2533.039,348.682h6.244v6.244h-6.244V348.682L2533.039,348.682z M2513.485,348.682h6.244v6.244h-6.244V348.682z"/>
<g>
	<path fill-rule="evenodd" clip-rule="evenodd" fill="#FFFFFF" d="M3064.97,339.081c-6.212-3.759-14.298-1.779-18.069,4.426
		c-0.018,0.028-0.03,0.06-0.048,0.088l-16.82,3.352c-1.793-5.624-7.115-9.363-13.014-9.142c-5.899,0.222-10.926,4.353-12.288,10.096
		l-14.945,2.342c-0.455-3.821-2.569-7.248-5.774-9.373c-3.209-2.125-7.19-2.731-10.886-1.661l-5.847-13.188
		c4.376-4.895,4.487-12.264,0.261-17.29c-4.226-5.027-11.504-6.182-17.08-2.71c-5.573,3.473-7.748,10.515-5.1,16.523
		c2.646,6.011,9.309,9.161,15.633,7.391l5.867,13.24c-3.281,3.738-4.171,9.008-2.299,13.616c1.87,4.607,6.179,7.768,11.138,8.162
		c4.958,0.396,9.714-2.037,12.291-6.291c0.155-0.255,0.286-0.517,0.419-0.779l16.687-2.615c1.881,5.465,7.109,9.061,12.885,8.859
		c5.774-0.202,10.739-4.153,12.233-9.735l14.845-2.958c0.521,6.184,5.297,11.164,11.453,11.941
		c6.159,0.776,12.021-2.859,14.063-8.72c2.043-5.863-0.293-12.352-5.603-15.57L3064.97,339.081L3064.97,339.081z M2954.434,322.263
		c-2.749-1.667-3.625-5.247-1.957-7.998c1.667-2.75,5.248-3.626,7.999-1.958c2.749,1.667,3.626,5.248,1.958,7.997
		C2960.763,323.051,2957.186,323.927,2954.434,322.263L2954.434,322.263z M2973.725,356.816c-2.751-1.668-3.628-5.249-1.961-7.998
		c1.668-2.749,5.249-3.628,8-1.959c2.749,1.667,3.625,5.25,1.957,7.999C2980.051,357.602,2976.473,358.48,2973.725,356.816
		L2973.725,356.816z M3014.502,355.938c-2.75-1.667-3.629-5.249-1.96-8c1.668-2.749,5.249-3.625,7.999-1.957
		c2.751,1.668,3.628,5.249,1.959,8C3020.829,356.727,3017.252,357.603,3014.502,355.938L3014.502,355.938z M3055.128,355.308
		c-2.749-1.667-3.626-5.248-1.958-7.999c1.668-2.749,5.248-3.626,7.997-1.959c2.751,1.669,3.628,5.249,1.961,7.998
		C3061.456,356.095,3057.879,356.972,3055.128,355.308z M3055.128,355.308"/>
	<path fill-rule="evenodd" clip-rule="evenodd" fill="#FFFFFF" d="M3054.036,373.314l-14.368-8.714
		c-1.732-1.051-3.986-0.498-5.035,1.233l-36.888,60.818c-1.05,1.731-0.499,3.985,1.233,5.036l14.367,8.714
		c1.731,1.05,3.987,0.498,5.037-1.233l36.887-60.818C3056.319,376.62,3055.767,374.364,3054.036,373.314L3054.036,373.314z
		 M3014.014,432.23l-8.098-4.911l33.085-54.549l8.098,4.912L3014.014,432.23z M3014.014,432.23"/>
	<path fill-rule="evenodd" clip-rule="evenodd" fill="#FFFFFF" d="M3013.453,373.869l-14.368-8.714
		c-1.73-1.05-3.986-0.498-5.036,1.233l-25.727,42.417c-1.051,1.731-0.498,3.987,1.232,5.036l14.368,8.714
		c1.732,1.051,3.986,0.497,5.036-1.233l25.727-42.417C3015.735,377.174,3015.186,374.919,3013.453,373.869L3013.453,373.869z
		 M2984.591,414.385l-8.099-4.912l21.925-36.148l8.099,4.912L2984.591,414.385z M2984.591,414.385"/>
	<path fill-rule="evenodd" clip-rule="evenodd" fill="#FFFFFF" d="M2972.572,374.922l-14.367-8.714
		c-1.731-1.05-3.985-0.5-5.037,1.233l-14.266,23.521c-1.05,1.731-0.497,3.987,1.233,5.036l14.368,8.714
		c1.732,1.051,3.986,0.497,5.036-1.233l14.266-23.521C2974.856,378.225,2974.305,375.973,2972.572,374.922L2972.572,374.922
		L2972.572,374.922z M2955.172,396.542l-8.099-4.912l10.464-17.251l8.098,4.912L2955.172,396.542z M2955.172,396.542"/>
	<path fill-rule="evenodd" clip-rule="evenodd" fill="#FFFFFF" d="M2953.234,340.444l-14.368-8.714
		c-1.73-1.05-3.986-0.498-5.036,1.233l-24.354,40.152c-1.049,1.73-0.497,3.986,1.234,5.036l14.367,8.714
		c1.733,1.051,3.986,0.497,5.036-1.233l24.354-40.152C2955.518,343.749,2954.967,341.495,2953.234,340.444L2953.234,340.444
		L2953.234,340.444z M2925.746,378.694l-8.098-4.912l20.55-33.883l8.099,4.912L2925.746,378.694z M2925.746,378.694"/>
	<path fill-rule="evenodd" clip-rule="evenodd" fill="#FFFFFF" d="M3136.115,243.44l-101.85-61.774
		c-1.732-1.051-3.986-0.497-5.036,1.233l-4.38,7.221l-24.651-14.952c-7.944-4.808-18.278-2.276-23.104,5.657l-113.171,186.589
		c-4.805,7.945-2.273,18.279,5.661,23.103l151.8,92.07c7.944,4.807,18.278,2.276,23.104-5.657l113.171-186.589
		c4.804-7.943,2.272-18.278-5.658-23.102l-19.031-11.542l4.379-7.221C3138.398,246.746,3137.846,244.49,3136.115,243.44
		L3136.115,243.44L3136.115,243.44z M3033.598,189.837l95.58,57.972l-7.924,13.066l-95.581-57.972L3033.598,189.837
		L3033.598,189.837z M3148.196,273.508c4.475,2.72,5.903,8.549,3.192,13.031l-113.17,186.589c-2.721,4.474-8.551,5.902-13.031,3.19
		l-151.801-92.07c-4.475-2.72-5.902-8.549-3.192-13.031l113.169-186.589c2.723-4.474,8.549-5.901,13.03-3.191l24.651,14.952
		l-3.545,5.845c-1.05,1.731-0.499,3.985,1.233,5.036l101.853,61.775c1.73,1.049,3.986,0.497,5.035-1.233l3.546-5.846
		L3148.196,273.508z M3148.196,273.508"/>
	<path fill-rule="evenodd" clip-rule="evenodd" fill="#FFFFFF" d="M2969.438,263.189l51.25,31.084
		c1.731,1.05,3.986,0.497,5.036-1.233l17.05-28.111c1.05-1.73,0.497-3.987-1.233-5.036l-51.25-31.084
		c-1.731-1.05-3.986-0.497-5.036,1.233l-17.05,28.111C2967.155,259.884,2967.707,262.14,2969.438,263.189L2969.438,263.189
		L2969.438,263.189z M2989.623,236.979l44.98,27.282l-13.247,21.841l-44.98-27.282L2989.623,236.979z M2989.623,236.979"/>
	<path fill-rule="evenodd" clip-rule="evenodd" fill="#FFFFFF" d="M3091.959,328.924l-2.178-1.321
		c-1.731-1.05-3.987-0.497-5.036,1.233c-1.05,1.731-0.497,3.987,1.233,5.037l2.178,1.32c1.73,1.05,3.986,0.497,5.036-1.233
		C3094.242,332.229,3093.689,329.974,3091.959,328.924L3091.959,328.924z M3091.959,328.924"/>
	<path fill-rule="evenodd" clip-rule="evenodd" fill="#FFFFFF" d="M3047.532,310.555l23.913,14.504
		c1.73,1.049,3.986,0.497,5.036-1.233c1.05-1.731,0.497-3.987-1.233-5.037l-23.913-14.503c-1.733-1.051-3.986-0.497-5.036,1.234
		C3045.249,307.25,3045.8,309.504,3047.532,310.555L3047.532,310.555z M3047.532,310.555"/>
	<path fill-rule="evenodd" clip-rule="evenodd" fill="#FFFFFF" d="M3079.867,287.427c-1.049,1.731-0.497,3.987,1.233,5.036
		l24.105,14.62c1.73,1.05,3.986,0.498,5.036-1.233c1.049-1.731,0.497-3.987-1.233-5.037l-24.105-14.62
		C3083.173,285.144,3080.917,285.696,3079.867,287.427z M3079.867,287.427"/>
	<path fill-rule="evenodd" clip-rule="evenodd" fill="#FFFFFF" d="M3064.582,282.444l1.986,1.205
		c1.73,1.049,3.986,0.497,5.035-1.234c1.051-1.73,0.498-3.986-1.232-5.036l-1.986-1.204c-1.732-1.051-3.986-0.497-5.036,1.233
		C3062.299,279.139,3062.85,281.393,3064.582,282.444L3064.582,282.444z M3064.582,282.444"/>
	<path fill-rule="evenodd" clip-rule="evenodd" fill="#FFFFFF" d="M2982.359,302.471c-1.05,1.73-0.497,3.986,1.233,5.036
		l36.926,22.396c1.73,1.05,3.986,0.497,5.036-1.233c1.05-1.731,0.497-3.987-1.233-5.036l-36.926-22.396
		C2985.665,300.188,2983.409,300.741,2982.359,302.471z M2982.359,302.471"/>
	<path fill-rule="evenodd" clip-rule="evenodd" fill="#FFFFFF" d="M2971.801,291.779c-1.73-1.05-3.986-0.497-5.036,1.234
		c-1.05,1.73-0.497,3.986,1.233,5.036l4.121,2.499c1.73,1.05,3.986,0.498,5.036-1.233c1.05-1.731,0.497-3.987-1.233-5.037
		L2971.801,291.779z M2971.801,291.779"/>
	<path fill-rule="evenodd" clip-rule="evenodd" fill="#FFFFFF" d="M2961.757,289.976c1.05-1.731,0.497-3.987-1.233-5.037
		l-3.127-1.896c-1.73-1.05-3.986-0.497-5.036,1.233c-1.05,1.731-0.497,3.986,1.233,5.036l3.127,1.896
		C2958.451,292.258,2960.707,291.706,2961.757,289.976L2961.757,289.976z M2961.757,289.976"/>
</g>
<path fill-rule="evenodd" clip-rule="evenodd" fill="#FFFFFF" d="M1735.104,506.658l-23.516-5.117l1.792-8.232
	c1.408-6.474-2.714-12.888-9.188-14.297c-6.473-1.409-12.889,2.713-14.297,9.187l-1.792,8.232l-80.018-17.413l1.792-8.232
	c1.409-6.473-2.713-12.888-9.187-14.297c-6.473-1.409-12.888,2.713-14.297,9.187l-1.956,8.99l-2.234-1.175
	c-0.218-0.115-0.447-0.202-0.688-0.254l-18.087-3.936c-11.48-2.498-22.854,4.811-25.353,16.291l-16.827,77.324
	c-0.32,1.471,0.612,2.922,2.083,3.243c1.471,0.32,2.922-0.613,3.243-2.083l11.999-55.142l165.533,36.022
	c1.472,0.32,2.923-0.612,3.242-2.083c0.32-1.471-0.611-2.923-2.083-3.243l-165.533-36.022l3.668-16.857
	c1.859-8.545,10.322-13.983,18.867-12.123l18.087,3.936c0.242,0.052,0.488,0.068,0.735,0.054l2.516-0.136l-1.807,8.305
	c-1.409,6.474,2.713,12.889,9.187,14.298c6.473,1.408,12.889-2.714,14.297-9.187l1.644-7.551l80.019,17.413l-1.644,7.551
	c-1.409,6.474,2.713,12.889,9.187,14.297s12.889-2.713,14.298-9.187l1.643-7.551l23.517,5.117
	c8.545,1.859,13.982,10.322,12.123,18.867l-37.538,172.502c-1.206,5.542-6.695,9.07-12.238,7.864
	c-5.543-1.207-9.069-6.695-7.863-12.238l2.556-11.744c0.319-1.471-0.612-2.922-2.084-3.242l-52.805-11.491
	c-1.471-0.32-2.922,0.612-3.242,2.083c-0.32,1.471,0.612,2.922,2.083,3.243l50.143,10.912l-1.977,9.08
	c-0.555,2.549-0.47,5.176,0.253,7.683l0.893,3.094l-185.879-40.45c-5.542-1.205-9.067-6.693-7.861-12.234l1.977-9.083l103.484,22.52
	c1.471,0.32,2.922-0.613,3.242-2.084c0.32-1.471-0.612-2.922-2.083-3.242l-50.413-10.97l4.548-2.465
	c9.283-5.031,15.897-13.767,18.146-24.1c4.241-19.49-8.166-38.799-27.656-43.04s-38.799,8.166-43.04,27.656
	c-2.249,10.333,0.137,21.027,6.49,29.46l3.112,4.132l-17.334-3.772c-1.471-0.32-2.922,0.612-3.242,2.083l-2.556,11.747
	c-1.845,8.476,3.552,16.875,12.028,18.719l197.923,43.07c8.478,1.845,16.878-3.553,18.723-12.03l37.539-172.502
	C1753.894,520.53,1746.584,509.156,1735.104,506.658L1735.104,506.658z M1599.958,490.735c-0.77,3.539-4.273,5.79-7.813,5.02
	c-3.539-0.77-5.79-4.274-5.02-7.813l4.594-21.109c0.771-3.539,4.274-5.79,7.813-5.02c3.539,0.77,5.79,4.273,5.02,7.813
	L1599.958,490.735L1599.958,490.735z M1703.461,513.259c-0.77,3.539-4.273,5.79-7.813,5.02c-3.538-0.771-5.79-4.274-5.02-7.813
	l4.594-21.109c0.77-3.539,4.273-5.79,7.813-5.02c3.538,0.77,5.79,4.273,5.02,7.813L1703.461,513.259L1703.461,513.259z
	 M1504.039,612.261c3.603-16.555,20-27.091,36.555-23.488s27.092,20,23.489,36.555s-20,27.092-36.556,23.489
	C1510.972,645.213,1500.436,628.816,1504.039,612.261L1504.039,612.261z M1551.025,612.289c0.813,1.267,0.447,2.952-0.82,3.766
	l-21.909,14.079c-0.608,0.391-1.347,0.523-2.053,0.37c-0.706-0.154-1.322-0.582-1.713-1.19l-6.465-10.06
	c-0.814-1.267-0.447-2.953,0.82-3.766c1.267-0.814,2.952-0.448,3.766,0.819l4.991,7.767l19.617-12.605
	C1548.526,610.655,1550.21,611.021,1551.025,612.289L1551.025,612.289z M1612.671,554.186c8.476,1.844,13.873,10.243,12.028,18.719
	s-10.243,13.873-18.72,12.028c-8.475-1.845-13.873-10.244-12.028-18.72C1595.796,557.738,1604.195,552.341,1612.671,554.186
	L1612.671,554.186z M1607.139,579.607c-5.541-1.206-9.067-6.693-7.861-12.234c1.206-5.541,6.693-9.067,12.234-7.861
	c5.542,1.206,9.067,6.693,7.861,12.234C1618.167,577.288,1612.68,580.813,1607.139,579.607L1607.139,579.607z M1697.41,572.626
	c8.477,1.845,13.873,10.244,12.028,18.72c-1.845,8.476-10.243,13.873-18.72,12.028c-8.476-1.845-13.872-10.244-12.027-18.719
	C1680.535,576.179,1688.935,570.782,1697.41,572.626L1697.41,572.626z M1691.878,598.048c-5.541-1.206-9.067-6.693-7.861-12.234
	c1.206-5.541,6.693-9.067,12.234-7.861c5.542,1.206,9.067,6.693,7.861,12.234C1702.907,595.728,1697.42,599.253,1691.878,598.048
	L1691.878,598.048z M1655.04,563.406c8.477,1.845,13.873,10.244,12.028,18.72c-1.845,8.476-10.243,13.873-18.719,12.028
	c-8.476-1.844-13.873-10.243-12.028-18.719C1638.166,566.958,1646.564,561.562,1655.04,563.406L1655.04,563.406z M1649.508,588.828
	c-5.541-1.206-9.066-6.693-7.86-12.234c1.205-5.542,6.692-9.068,12.233-7.862c5.542,1.206,9.068,6.693,7.862,12.234
	S1655.05,590.033,1649.508,588.828L1649.508,588.828z M1570.302,544.966c8.476,1.845,13.873,10.244,12.028,18.72
	c-1.845,8.476-10.244,13.872-18.72,12.028c-8.476-1.844-13.873-10.243-12.028-18.719
	C1553.427,548.518,1561.826,543.122,1570.302,544.966L1570.302,544.966z M1564.77,570.388c-5.541-1.206-9.067-6.693-7.861-12.234
	c1.206-5.542,6.693-9.067,12.234-7.861c5.542,1.206,9.067,6.693,7.861,12.234C1575.798,568.067,1570.311,571.593,1564.77,570.388
	L1564.77,570.388z M1687.137,619.838c8.476,1.844,13.873,10.243,12.028,18.719s-10.243,13.873-18.72,12.028
	c-8.476-1.845-13.873-10.243-12.028-18.719S1678.66,617.993,1687.137,619.838L1687.137,619.838z M1681.604,645.26
	c-5.542-1.206-9.067-6.693-7.861-12.235c1.205-5.541,6.693-9.067,12.234-7.861s9.067,6.693,7.861,12.234
	S1687.146,646.465,1681.604,645.26L1681.604,645.26z M1644.767,610.618c8.476,1.844,13.872,10.243,12.028,18.719
	c-1.845,8.476-10.243,13.873-18.72,12.028c-8.476-1.844-13.873-10.243-12.028-18.719
	C1627.892,614.17,1636.291,608.773,1644.767,610.618L1644.767,610.618z M1639.234,636.04c-5.541-1.206-9.067-6.693-7.861-12.234
	c1.206-5.542,6.693-9.067,12.234-7.861c5.541,1.206,9.067,6.693,7.861,12.234C1650.263,633.719,1644.775,637.245,1639.234,636.04
	L1639.234,636.04z M1602.397,601.397c8.476,1.845,13.873,10.244,12.028,18.719c-1.845,8.476-10.243,13.873-18.719,12.028
	c-8.476-1.844-13.873-10.244-12.028-18.719C1585.522,604.95,1593.921,599.553,1602.397,601.397L1602.397,601.397z M1596.865,626.819
	c-5.541-1.206-9.067-6.693-7.861-12.234c1.206-5.541,6.693-9.067,12.234-7.861c5.542,1.206,9.067,6.693,7.862,12.234
	C1607.894,624.5,1602.406,628.025,1596.865,626.819L1596.865,626.819z M1620.518,669.925c0.386,0.602,0.525,1.355,0.373,2.054
	c-0.152,0.699-0.593,1.332-1.194,1.719c-0.598,0.385-1.354,0.516-2.048,0.365c-0.695-0.151-1.329-0.584-1.713-1.184
	c-0.387-0.604-0.523-1.357-0.371-2.059c0.152-0.699,0.591-1.327,1.192-1.714c0.599-0.386,1.354-0.516,2.049-0.365
	C1619.501,668.893,1620.134,669.325,1620.518,669.925L1620.518,669.925z M1728.272,545.451c0.386,0.6,0.523,1.356,0.371,2.053
	c-0.151,0.696-0.591,1.327-1.19,1.712s-1.355,0.522-2.052,0.371c-0.696-0.152-1.327-0.591-1.713-1.19s-0.521-1.356-0.37-2.052
	s0.591-1.328,1.189-1.713c0.6-0.385,1.356-0.522,2.053-0.371S1727.888,544.852,1728.272,545.451z"/>
</svg>
